<svg xmlns="http://www.w3.org/2000/svg" xmlns:xlink="http://www.w3.org/1999/xlink" viewBox="0 0 548 700" width="548" height="700" preserveAspectRatio="xMidYMid meet" style="width: 100%; height: 100%; transform: translate3d(0px, 0px, 0px); content-visibility: visible;"><defs><clipPath id="__lottie_element_40"><rect width="548" height="700" x="0" y="0"></rect></clipPath></defs><g clip-path="url(#__lottie_element_40)"><g transform="matrix(0.9099699854850769,0,0,1,274,350)" opacity="0.35000000000000003" style="display: block;"><g opacity="1" transform="matrix(1,0,0,1,5.078999996185303,306.6029968261719)"><path fill="rgb(41,47,51)" fill-opacity="1" d=" M0,-16.602500915527344 C119.80590057373047,-16.602500915527344 217.07899475097656,-9.162919998168945 217.07899475097656,0 C217.07899475097656,9.162919998168945 119.80590057373047,16.602500915527344 0,16.602500915527344 C-119.80590057373047,16.602500915527344 -217.07899475097656,9.162919998168945 -217.07899475097656,0 C-217.07899475097656,-9.162919998168945 -119.80590057373047,-16.602500915527344 0,-16.602500915527344z"></path></g></g><g transform="matrix(1,0,0,1,148.5,241.5)" opacity="1" style="display: block;"><g opacity="1" transform="matrix(1,0,0,1,179.79299926757812,412.92401123046875)"><path fill="rgb(41,47,51)" fill-opacity="1" d=" M55.77399826049805,3.8929998874664307 C53.742000579833984,4.176000118255615 51.638999938964844,4.214000225067139 49.68299865722656,4.388999938964844 C45.24100112915039,4.785999774932861 40.79199981689453,5.113999843597412 36.34000015258789,5.376999855041504 C27.43199920654297,5.9039998054504395 18.509000778198242,6.171999931335449 9.583999633789062,6.21999979019165 C-0.7170000076293945,6.276000022888184 -11.019000053405762,6.039000034332275 -21.308000564575195,5.566999912261963 C-31.347999572753906,5.105999946594238 -41.42499923706055,5.679999828338623 -51.395999908447266,4.195000171661377 C-54.54100036621094,3.7269999980926514 -62.83399963378906,0.492000013589859 -58.32600021362305,-3.8540000915527344 C-57.1150016784668,-5.020999908447266 -55.1349983215332,-5.098999977111816 -53.36800003051758,-5.0980000495910645 C-17.23200035095215,-5.072999954223633 19.054000854492188,-6.276000022888184 55.17399978637695,-5.236000061035156 C58.00400161743164,-5.15500020980835 61.867000579833984,-5.3429999351501465 62.5099983215332,-1.8350000381469727 C62.834999084472656,-0.0560000017285347 61.823001861572266,1.871000051498413 60.138999938964844,2.680999994277954 C58.7859992980957,3.3310000896453857 57.29999923706055,3.680999994277954 55.77399826049805,3.8929998874664307z"></path><path stroke-linecap="butt" stroke-linejoin="miter" fill-opacity="0" stroke-miterlimit="10" stroke="rgb(41,47,51)" stroke-opacity="1" stroke-width="3" d=" M55.77399826049805,3.8929998874664307 C53.742000579833984,4.176000118255615 51.638999938964844,4.214000225067139 49.68299865722656,4.388999938964844 C45.24100112915039,4.785999774932861 40.79199981689453,5.113999843597412 36.34000015258789,5.376999855041504 C27.43199920654297,5.9039998054504395 18.509000778198242,6.171999931335449 9.583999633789062,6.21999979019165 C-0.7170000076293945,6.276000022888184 -11.019000053405762,6.039000034332275 -21.308000564575195,5.566999912261963 C-31.347999572753906,5.105999946594238 -41.42499923706055,5.679999828338623 -51.395999908447266,4.195000171661377 C-54.54100036621094,3.7269999980926514 -62.83399963378906,0.492000013589859 -58.32600021362305,-3.8540000915527344 C-57.1150016784668,-5.020999908447266 -55.1349983215332,-5.098999977111816 -53.36800003051758,-5.0980000495910645 C-17.23200035095215,-5.072999954223633 19.054000854492188,-6.276000022888184 55.17399978637695,-5.236000061035156 C58.00400161743164,-5.15500020980835 61.867000579833984,-5.3429999351501465 62.5099983215332,-1.8350000381469727 C62.834999084472656,-0.0560000017285347 61.823001861572266,1.871000051498413 60.138999938964844,2.680999994277954 C58.7859992980957,3.3310000896453857 57.29999923706055,3.680999994277954 55.77399826049805,3.8929998874664307z"></path></g><g opacity="1" transform="matrix(1,0,0,1,146.49600219726562,195.39199829101562)"><path fill="rgb(221,171,69)" fill-opacity="1" d=" M-14.732000350952148,185.39199829101562 C-16.19099998474121,86.7020034790039 -17.235000610351562,-69.27799987792969 -7.952000141143799,-166.73899841308594 C-7.256999969482422,-174.03500366210938 -5.499000072479248,-182.94400024414062 -0.4099999964237213,-184.33799743652344 C3.437000036239624,-185.39199829101562 3.183000087738037,-180.98699951171875 4.565999984741211,-175.7790069580078 C5.949999809265137,-170.57000732421875 3.565999984741211,-164.7969970703125 3.190999984741211,-159.25599670410156 C-3.171999931335449,-65.25399780273438 6.863999843597412,86.19100189208984 17.233999252319336,179.47000122070312"></path><path stroke-linecap="round" stroke-linejoin="round" fill-opacity="0" stroke="rgb(41,47,51)" stroke-opacity="1" stroke-width="4" d=" M-14.732000350952148,185.39199829101562 C-16.19099998474121,86.7020034790039 -17.235000610351562,-69.27799987792969 -7.952000141143799,-166.73899841308594 C-7.256999969482422,-174.03500366210938 -5.499000072479248,-182.94400024414062 -0.4099999964237213,-184.33799743652344 C3.437000036239624,-185.39199829101562 3.183000087738037,-180.98699951171875 4.565999984741211,-175.7790069580078 C5.949999809265137,-170.57000732421875 3.565999984741211,-164.7969970703125 3.190999984741211,-159.25599670410156 C-3.171999931335449,-65.25399780273438 6.863999843597412,86.19100189208984 17.233999252319336,179.47000122070312"></path></g><g opacity="1" transform="matrix(1,0,0,1,178.781005859375,386.35198974609375)"><path fill="rgb(221,171,69)" fill-opacity="1" d=" M-16.285999298095703,-14.942000389099121 C-4.86299991607666,-12.866000175476074 7.1539998054504395,-14.178000450134277 17.861000061035156,-18.66900062561035 C22.131999969482422,-20.459999084472656 26.24799919128418,-22.760000228881836 30.7810001373291,-23.711000442504883 C35.8120002746582,-24.766000747680664 41.180999755859375,-23.996999740600586 45.76599884033203,-21.69300079345703 C50.95899963378906,-19.083999633789062 56.43299865722656,-18.636999130249023 59.37699890136719,-12.819999694824219 C61.02899932861328,-9.555000305175781 61.50199890136719,-5.806000232696533 61.43299865722656,-2.1480000019073486 C61.20199966430664,10.012999534606934 53.93299865722656,18.969999313354492 42.3120002746582,22.469999313354492 C37.053001403808594,24.054000854492188 30.606000900268555,23.961999893188477 25.14900016784668,24.2450008392334 C15.088000297546387,24.766000747680664 5.336999893188477,23.691999435424805 -4.686999797821045,23.47800064086914 C-15.352999687194824,23.25 -26.01799964904785,23.02199935913086 -36.683998107910156,22.795000076293945 C-41.178001403808594,22.698999404907227 -45.7869987487793,22.58099937438965 -49.95800018310547,20.906999588012695 C-59.34199905395508,17.142000198364258 -61.50199890136719,5.375 -55.8120002746582,-2.4760000705718994 C-52.974998474121094,-6.389999866485596 -48.92100143432617,-9.220000267028809 -44.946998596191406,-11.972999572753906"></path><path stroke-linecap="round" stroke-linejoin="round" fill-opacity="0" stroke="rgb(41,47,51)" stroke-opacity="1" stroke-width="4" d=" M-16.285999298095703,-14.942000389099121 C-4.86299991607666,-12.866000175476074 7.1539998054504395,-14.178000450134277 17.861000061035156,-18.66900062561035 C22.131999969482422,-20.459999084472656 26.24799919128418,-22.760000228881836 30.7810001373291,-23.711000442504883 C35.8120002746582,-24.766000747680664 41.180999755859375,-23.996999740600586 45.76599884033203,-21.69300079345703 C50.95899963378906,-19.083999633789062 56.43299865722656,-18.636999130249023 59.37699890136719,-12.819999694824219 C61.02899932861328,-9.555000305175781 61.50199890136719,-5.806000232696533 61.43299865722656,-2.1480000019073486 C61.20199966430664,10.012999534606934 53.93299865722656,18.969999313354492 42.3120002746582,22.469999313354492 C37.053001403808594,24.054000854492188 30.606000900268555,23.961999893188477 25.14900016784668,24.2450008392334 C15.088000297546387,24.766000747680664 5.336999893188477,23.691999435424805 -4.686999797821045,23.47800064086914 C-15.352999687194824,23.25 -26.01799964904785,23.02199935913086 -36.683998107910156,22.795000076293945 C-41.178001403808594,22.698999404907227 -45.7869987487793,22.58099937438965 -49.95800018310547,20.906999588012695 C-59.34199905395508,17.142000198364258 -61.50199890136719,5.375 -55.8120002746582,-2.4760000705718994 C-52.974998474121094,-6.389999866485596 -48.92100143432617,-9.220000267028809 -44.946998596191406,-11.972999572753906"></path></g><g opacity="1" transform="matrix(1,0,0,1,180.7689971923828,381.5140075683594)"><path stroke-linecap="butt" stroke-linejoin="miter" fill-opacity="0" stroke-miterlimit="10" stroke="rgb(41,47,51)" stroke-opacity="1" stroke-width="4" d=" M42.09000015258789,27.66900062561035 C46.03300094604492,19.479999542236328 50.332000732421875,11.687000274658203 50.132999420166016,2.319999933242798 C49.79499816894531,-13.543999671936035 39.22800064086914,-29.319000244140625 21.52899932861328,-24.367000579833984 C15.437000274658203,-22.66200065612793 10.119000434875488,-18.868999481201172 5.534999847412109,-14.508999824523926 C0.9509999752044678,-10.14900016784668 -3.010999917984009,-5.186999797821045 -7.323999881744385,-0.5590000152587891 C-19.316999435424805,12.307999610900879 -34.0880012512207,22.56999969482422 -50.332000732421875,29.319000244140625"></path></g><g opacity="1" transform="matrix(1,0,0,1,70.48899841308594,412.92401123046875)"><path fill="rgb(41,47,51)" fill-opacity="1" d=" M-55.77299880981445,3.8929998874664307 C-53.74100112915039,4.176000118255615 -51.638999938964844,4.214000225067139 -49.68299865722656,4.388999938964844 C-45.24100112915039,4.785999774932861 -40.79199981689453,5.113999843597412 -36.34000015258789,5.376999855041504 C-27.43199920654297,5.9039998054504395 -18.510000228881836,6.171999931335449 -9.585000038146973,6.21999979019165 C0.7160000205039978,6.276000022888184 11.017999649047852,6.039000034332275 21.30699920654297,5.566999912261963 C31.347000122070312,5.105999946594238 41.42499923706055,5.679999828338623 51.395999908447266,4.195000171661377 C54.54100036621094,3.7269999980926514 62.83399963378906,0.492000013589859 58.32600021362305,-3.8540000915527344 C57.1150016784668,-5.020999908447266 55.13399887084961,-5.098999977111816 53.36800003051758,-5.0980000495910645 C17.23200035095215,-5.072999954223633 -19.054000854492188,-6.276000022888184 -55.17399978637695,-5.236000061035156 C-58.00400161743164,-5.15500020980835 -61.867000579833984,-5.3429999351501465 -62.5099983215332,-1.8350000381469727 C-62.834999084472656,-0.0560000017285347 -61.823001861572266,1.871000051498413 -60.138999938964844,2.680999994277954 C-58.7859992980957,3.3310000896453857 -57.29899978637695,3.680999994277954 -55.77299880981445,3.8929998874664307z"></path><path stroke-linecap="butt" stroke-linejoin="miter" fill-opacity="0" stroke-miterlimit="10" stroke="rgb(41,47,51)" stroke-opacity="1" stroke-width="3" d=" M-55.77299880981445,3.8929998874664307 C-53.74100112915039,4.176000118255615 -51.638999938964844,4.214000225067139 -49.68299865722656,4.388999938964844 C-45.24100112915039,4.785999774932861 -40.79199981689453,5.113999843597412 -36.34000015258789,5.376999855041504 C-27.43199920654297,5.9039998054504395 -18.510000228881836,6.171999931335449 -9.585000038146973,6.21999979019165 C0.7160000205039978,6.276000022888184 11.017999649047852,6.039000034332275 21.30699920654297,5.566999912261963 C31.347000122070312,5.105999946594238 41.42499923706055,5.679999828338623 51.395999908447266,4.195000171661377 C54.54100036621094,3.7269999980926514 62.83399963378906,0.492000013589859 58.32600021362305,-3.8540000915527344 C57.1150016784668,-5.020999908447266 55.13399887084961,-5.098999977111816 53.36800003051758,-5.0980000495910645 C17.23200035095215,-5.072999954223633 -19.054000854492188,-6.276000022888184 -55.17399978637695,-5.236000061035156 C-58.00400161743164,-5.15500020980835 -61.867000579833984,-5.3429999351501465 -62.5099983215332,-1.8350000381469727 C-62.834999084472656,-0.0560000017285347 -61.823001861572266,1.871000051498413 -60.138999938964844,2.680999994277954 C-58.7859992980957,3.3310000896453857 -57.29899978637695,3.680999994277954 -55.77299880981445,3.8929998874664307z"></path></g><g opacity="1" transform="matrix(1,0,0,1,103.78600311279297,195.39199829101562)"><path fill="rgb(221,171,69)" fill-opacity="1" d=" M14.732999801635742,185.39199829101562 C16.191999435424805,86.7020034790039 17.235000610351562,-69.27799987792969 7.952000141143799,-166.73899841308594 C7.256999969482422,-174.03500366210938 5.5,-182.94400024414062 0.41100001335144043,-184.33799743652344 C-3.436000108718872,-185.39199829101562 -3.183000087738037,-180.98699951171875 -4.565999984741211,-175.7790069580078 C-5.949999809265137,-170.57000732421875 -3.565999984741211,-164.7969970703125 -3.190999984741211,-159.25599670410156 C3.171999931335449,-65.25399780273438 -6.863999843597412,86.19100189208984 -17.233999252319336,179.47000122070312"></path><path stroke-linecap="round" stroke-linejoin="round" fill-opacity="0" stroke="rgb(41,47,51)" stroke-opacity="1" stroke-width="4" d=" M14.732999801635742,185.39199829101562 C16.191999435424805,86.7020034790039 17.235000610351562,-69.27799987792969 7.952000141143799,-166.73899841308594 C7.256999969482422,-174.03500366210938 5.5,-182.94400024414062 0.41100001335144043,-184.33799743652344 C-3.436000108718872,-185.39199829101562 -3.183000087738037,-180.98699951171875 -4.565999984741211,-175.7790069580078 C-5.949999809265137,-170.57000732421875 -3.565999984741211,-164.7969970703125 -3.190999984741211,-159.25599670410156 C3.171999931335449,-65.25399780273438 -6.863999843597412,86.19100189208984 -17.233999252319336,179.47000122070312"></path></g><g opacity="1" transform="matrix(1,0,0,1,71.50199890136719,386.35198974609375)"><path fill="rgb(221,171,69)" fill-opacity="1" d=" M16.28700065612793,-14.942000389099121 C4.863999843597412,-12.866000175476074 -7.15500020980835,-14.178000450134277 -17.86199951171875,-18.66900062561035 C-22.132999420166016,-20.459999084472656 -26.24799919128418,-22.760000228881836 -30.7810001373291,-23.711000442504883 C-35.8120002746582,-24.766000747680664 -41.18199920654297,-23.996999740600586 -45.766998291015625,-21.69300079345703 C-50.959999084472656,-19.083999633789062 -56.43299865722656,-18.636999130249023 -59.37699890136719,-12.819999694824219 C-61.02899932861328,-9.555000305175781 -61.50199890136719,-5.806000232696533 -61.43299865722656,-2.1480000019073486 C-61.20199966430664,10.012999534606934 -53.93299865722656,18.969999313354492 -42.3120002746582,22.469999313354492 C-37.053001403808594,24.054000854492188 -30.60700035095215,23.961999893188477 -25.149999618530273,24.2450008392334 C-15.08899974822998,24.766000747680664 -5.336999893188477,23.691999435424805 4.686999797821045,23.47800064086914 C15.352999687194824,23.25 26.018999099731445,23.02199935913086 36.685001373291016,22.795000076293945 C41.17900085449219,22.698999404907227 45.7869987487793,22.58099937438965 49.95800018310547,20.906999588012695 C59.34199905395508,17.142000198364258 61.50199890136719,5.375 55.8120002746582,-2.4760000705718994 C52.974998474121094,-6.389999866485596 48.92100143432617,-9.220000267028809 44.946998596191406,-11.972999572753906"></path><path stroke-linecap="round" stroke-linejoin="round" fill-opacity="0" stroke="rgb(41,47,51)" stroke-opacity="1" stroke-width="4" d=" M16.28700065612793,-14.942000389099121 C4.863999843597412,-12.866000175476074 -7.15500020980835,-14.178000450134277 -17.86199951171875,-18.66900062561035 C-22.132999420166016,-20.459999084472656 -26.24799919128418,-22.760000228881836 -30.7810001373291,-23.711000442504883 C-35.8120002746582,-24.766000747680664 -41.18199920654297,-23.996999740600586 -45.766998291015625,-21.69300079345703 C-50.959999084472656,-19.083999633789062 -56.43299865722656,-18.636999130249023 -59.37699890136719,-12.819999694824219 C-61.02899932861328,-9.555000305175781 -61.50199890136719,-5.806000232696533 -61.43299865722656,-2.1480000019073486 C-61.20199966430664,10.012999534606934 -53.93299865722656,18.969999313354492 -42.3120002746582,22.469999313354492 C-37.053001403808594,24.054000854492188 -30.60700035095215,23.961999893188477 -25.149999618530273,24.2450008392334 C-15.08899974822998,24.766000747680664 -5.336999893188477,23.691999435424805 4.686999797821045,23.47800064086914 C15.352999687194824,23.25 26.018999099731445,23.02199935913086 36.685001373291016,22.795000076293945 C41.17900085449219,22.698999404907227 45.7869987487793,22.58099937438965 49.95800018310547,20.906999588012695 C59.34199905395508,17.142000198364258 61.50199890136719,5.375 55.8120002746582,-2.4760000705718994 C52.974998474121094,-6.389999866485596 48.92100143432617,-9.220000267028809 44.946998596191406,-11.972999572753906"></path></g><g opacity="1" transform="matrix(1,0,0,1,69.51399993896484,381.5140075683594)"><path stroke-linecap="butt" stroke-linejoin="miter" fill-opacity="0" stroke-miterlimit="10" stroke="rgb(41,47,51)" stroke-opacity="1" stroke-width="4" d=" M-42.0890007019043,27.66900062561035 C-46.03200149536133,19.479999542236328 -50.332000732421875,11.687000274658203 -50.132999420166016,2.319999933242798 C-49.79499816894531,-13.543999671936035 -39.22800064086914,-29.319000244140625 -21.52899932861328,-24.367000579833984 C-15.437000274658203,-22.66200065612793 -10.119000434875488,-18.868999481201172 -5.534999847412109,-14.508999824523926 C-0.9509999752044678,-10.14900016784668 3.010999917984009,-5.186999797821045 7.323999881744385,-0.5590000152587891 C19.316999435424805,12.307999610900879 34.0890007019043,22.56999969482422 50.33300018310547,29.319000244140625"></path></g></g><g style="display: none;" transform="matrix(1,0,0,1,139.5,105.5)" opacity="1"><g opacity="1" transform="matrix(1,0,0,1,132.36099243164062,85.03299713134766)"><path fill="rgb(221,171,69)" fill-opacity="1" d=" M118.68399810791016,68.70500183105469 C118.02899932861328,69.68699645996094 117.25399780273438,70.4540023803711 116.33899688720703,70.90299987792969 C115.28900146484375,71.41799926757812 114.09500122070312,71.53800201416016 112.93000030517578,71.64900207519531 C100.27400207519531,72.86499786376953 87.91600036621094,70.84400177001953 75.23699951171875,70.84400177001953 C75.23699951171875,70.84400177001953 -25.226999282836914,70.84400177001953 -25.226999282836914,70.84400177001953 C-25.226999282836914,70.84400177001953 -72.8499984741211,70.84400177001953 -72.8499984741211,70.84400177001953 C-83.86100006103516,70.84400177001953 -107.12699890136719,75.03299713134766 -114.40599822998047,66.91200256347656 C-119.80000305175781,60.89500045776367 -116.89399719238281,50.92499923706055 -116.9280014038086,43.6879997253418 C-116.9729995727539,33.935001373291016 -116.9280014038086,24.180999755859375 -116.9280014038086,14.428000450134277 C-116.9280014038086,14.428000450134277 -116.9280014038086,-30.618000030517578 -116.9280014038086,-30.618000030517578 C-116.9280014038086,-42.566001892089844 -122.36100006103516,-63.638999938964844 -107.52899932861328,-69.76000213623047 C-94.75399780273438,-75.03199768066406 -74.45700073242188,-71.98400115966797 -60.65800094604492,-71.98400115966797 C-60.65800094604492,-71.98400115966797 -9.331000328063965,-71.98400115966797 -9.331000328063965,-71.98400115966797 C-9.331000328063965,-71.98400115966797 89.63700103759766,-71.98400115966797 89.63700103759766,-71.98400115966797 C94.09600067138672,-71.98400115966797 98.33799743652344,-72.44300079345703 102.7030029296875,-72.13800048828125 C106.94100189208984,-71.84200286865234 112.71700286865234,-73.86299896240234 116.4020004272461,-71.08799743652344 C118.6520004272461,-69.39299774169922 119.3489990234375,-66.36399841308594 119.78399658203125,-63.58000183105469 C122.22599792480469,-47.94900131225586 121.1240005493164,-31.691999435424805 121.1240005493164,-15.92300033569336 C121.1240005493164,-15.92300033569336 121.1240005493164,28.979000091552734 121.1240005493164,28.979000091552734 C121.1240005493164,36.54899978637695 122.36100006103516,44.06800079345703 122.22100067138672,51.65299987792969 C122.14700317382812,55.61899948120117 121.61000061035156,64.31700134277344 118.68399810791016,68.70500183105469z"></path><path stroke-linecap="butt" stroke-linejoin="miter" fill-opacity="0" stroke-miterlimit="10" stroke="rgb(41,47,51)" stroke-opacity="1" stroke-width="4" d=" M118.68399810791016,68.70500183105469 C118.02899932861328,69.68699645996094 117.25399780273438,70.4540023803711 116.33899688720703,70.90299987792969 C115.28900146484375,71.41799926757812 114.09500122070312,71.53800201416016 112.93000030517578,71.64900207519531 C100.27400207519531,72.86499786376953 87.91600036621094,70.84400177001953 75.23699951171875,70.84400177001953 C75.23699951171875,70.84400177001953 -25.226999282836914,70.84400177001953 -25.226999282836914,70.84400177001953 C-25.226999282836914,70.84400177001953 -72.8499984741211,70.84400177001953 -72.8499984741211,70.84400177001953 C-83.86100006103516,70.84400177001953 -107.12699890136719,75.03299713134766 -114.40599822998047,66.91200256347656 C-119.80000305175781,60.89500045776367 -116.89399719238281,50.92499923706055 -116.9280014038086,43.6879997253418 C-116.9729995727539,33.935001373291016 -116.9280014038086,24.180999755859375 -116.9280014038086,14.428000450134277 C-116.9280014038086,14.428000450134277 -116.9280014038086,-30.618000030517578 -116.9280014038086,-30.618000030517578 C-116.9280014038086,-42.566001892089844 -122.36100006103516,-63.638999938964844 -107.52899932861328,-69.76000213623047 C-94.75399780273438,-75.03199768066406 -74.45700073242188,-71.98400115966797 -60.65800094604492,-71.98400115966797 C-60.65800094604492,-71.98400115966797 -9.331000328063965,-71.98400115966797 -9.331000328063965,-71.98400115966797 C-9.331000328063965,-71.98400115966797 89.63700103759766,-71.98400115966797 89.63700103759766,-71.98400115966797 C94.09600067138672,-71.98400115966797 98.33799743652344,-72.44300079345703 102.7030029296875,-72.13800048828125 C106.94100189208984,-71.84200286865234 112.71700286865234,-73.86299896240234 116.4020004272461,-71.08799743652344 C118.6520004272461,-69.39299774169922 119.3489990234375,-66.36399841308594 119.78399658203125,-63.58000183105469 C122.22599792480469,-47.94900131225586 121.1240005493164,-31.691999435424805 121.1240005493164,-15.92300033569336 C121.1240005493164,-15.92300033569336 121.1240005493164,28.979000091552734 121.1240005493164,28.979000091552734 C121.1240005493164,36.54899978637695 122.36100006103516,44.06800079345703 122.22100067138672,51.65299987792969 C122.14700317382812,55.61899948120117 121.61000061035156,64.31700134277344 118.68399810791016,68.70500183105469z"></path></g><g opacity="1" transform="matrix(1,0,0,1,93.41300201416016,40.62099838256836)"><path stroke-linecap="round" stroke-linejoin="round" fill-opacity="0" stroke="rgb(41,47,51)" stroke-opacity="1" stroke-width="4" d=" M-8.45300006866455,4.698999881744385 C-6.697999954223633,-1.4199999570846558 2.4619998931884766,-4.698999881744385 8.45300006866455,-1.3539999723434448"></path></g><g opacity="1" transform="matrix(1,0,0,1,168.19700622558594,37.50600051879883)"><path stroke-linecap="round" stroke-linejoin="round" fill-opacity="0" stroke="rgb(41,47,51)" stroke-opacity="1" stroke-width="4" d=" M-11.043999671936035,1.0360000133514404 C-4.422999858856201,-3.0820000171661377 5.506999969482422,-2.1630001068115234 11.043999671936035,3.0820000171661377"></path></g><g opacity="1" transform="matrix(1,0,0,1,100.26000213623047,65.65699768066406)"><path fill="rgb(229,226,214)" fill-opacity="1" d=" M-12.038999557495117,4.5920000076293945 C-5.7729997634887695,-0.7379999756813049 4.339000225067139,-2.046999931335449 12.038999557495117,1.472000002861023 C9.03600025177002,-2.492000102996826 3.7290000915527344,-4.5920000076293945 -1.2100000381469727,-4.011000156402588 C-6.14900016784668,-3.430999994277954 -10.038000106811523,0.03999999910593033 -12.038999557495117,4.5920000076293945z"></path><path stroke-linecap="round" stroke-linejoin="round" fill-opacity="0" stroke="rgb(41,47,51)" stroke-opacity="1" stroke-width="4" d=" M-12.038999557495117,4.5920000076293945 C-5.7729997634887695,-0.7379999756813049 4.339000225067139,-2.046999931335449 12.038999557495117,1.472000002861023 C9.03600025177002,-2.492000102996826 3.7290000915527344,-4.5920000076293945 -1.2100000381469727,-4.011000156402588 C-6.14900016784668,-3.430999994277954 -10.038000106811523,0.03999999910593033 -12.038999557495117,4.5920000076293945z"></path></g><g opacity="1" transform="matrix(1,0,0,1,158.4290008544922,62.33000183105469)"><path fill="rgb(229,226,214)" fill-opacity="1" d=" M12.206999778747559,2.430000066757202 C4.9120001792907715,-1.8279999494552612 -5.431000232696533,-1.3580000400543213 -12.206999778747559,3.5380001068115234 C-9.42199993133545,-0.492000013589859 -4.914000034332275,-3.0369999408721924 -0.02199999988079071,-3.2880001068115234 C4.86899995803833,-3.5380001068115234 9.024999618530273,-1.2940000295639038 12.206999778747559,2.430000066757202z"></path><path stroke-linecap="round" stroke-linejoin="round" fill-opacity="0" stroke="rgb(41,47,51)" stroke-opacity="1" stroke-width="4" d=" M12.206999778747559,2.430000066757202 C4.9120001792907715,-1.8279999494552612 -5.431000232696533,-1.3580000400543213 -12.206999778747559,3.5380001068115234 C-9.42199993133545,-0.492000013589859 -4.914000034332275,-3.0369999408721924 -0.02199999988079071,-3.2880001068115234 C4.86899995803833,-3.5380001068115234 9.024999618530273,-1.2940000295639038 12.206999778747559,2.430000066757202z"></path></g><g opacity="1" transform="matrix(1,0,0,1,183.41099548339844,60.5099983215332)"><path fill="rgb(229,226,214)" fill-opacity="1" d=" M-4.169000148773193,1.656999945640564 C-1.3890000581741333,0.5519999861717224 1.3890000581741333,-0.5519999861717224 4.169000148773193,-1.656999945640564"></path><path stroke-linecap="round" stroke-linejoin="round" fill-opacity="0" stroke="rgb(41,47,51)" stroke-opacity="1" stroke-width="4" d=" M-4.169000148773193,1.656999945640564 C-1.3890000581741333,0.5519999861717224 1.3890000581741333,-0.5519999861717224 4.169000148773193,-1.656999945640564"></path></g><g opacity="1" transform="matrix(1,0,0,1,74.73500061035156,65.86699676513672)"><path fill="rgb(229,226,214)" fill-opacity="1" d=" M4.607999801635742,2.5230000019073486 C1.5360000133514404,0.8410000205039978 -1.5369999408721924,-0.8410000205039978 -4.607999801635742,-2.5230000019073486"></path><path stroke-linecap="round" stroke-linejoin="round" fill-opacity="0" stroke="rgb(41,47,51)" stroke-opacity="1" stroke-width="4" d=" M4.607999801635742,2.5230000019073486 C1.5360000133514404,0.8410000205039978 -1.5369999408721924,-0.8410000205039978 -4.607999801635742,-2.5230000019073486"></path></g><g opacity="1" transform="matrix(1,0,0,1,182.4810028076172,70.25)"><path fill="rgb(229,226,214)" fill-opacity="1" d=" M-3.239000082015991,-1.2510000467300415 C-1.0800000429153442,-0.4169999957084656 1.0800000429153442,0.4180000126361847 3.239000082015991,1.2510000467300415"></path><path stroke-linecap="round" stroke-linejoin="round" fill-opacity="0" stroke="rgb(41,47,51)" stroke-opacity="1" stroke-width="4" d=" M-3.239000082015991,-1.2510000467300415 C-1.0800000429153442,-0.4169999957084656 1.0800000429153442,0.4180000126361847 3.239000082015991,1.2510000467300415"></path></g><g opacity="1" transform="matrix(1,0,0,1,77.2239990234375,76.07499694824219)"><path fill="rgb(229,226,214)" fill-opacity="1" d=" M4.064000129699707,-2.062000036239624 C1.3550000190734863,-0.6880000233650208 -1.3550000190734863,0.6880000233650208 -4.064000129699707,2.062000036239624"></path><path stroke-linecap="round" stroke-linejoin="round" fill-opacity="0" stroke="rgb(41,47,51)" stroke-opacity="1" stroke-width="4" d=" M4.064000129699707,-2.062000036239624 C1.3550000190734863,-0.6880000233650208 -1.3550000190734863,0.6880000233650208 -4.064000129699707,2.062000036239624"></path></g><g opacity="1" transform="matrix(1,0,0,1,130.83999633789062,107.4219970703125)"><path fill="rgb(229,226,214)" fill-opacity="1" d=" M-58.034000396728516,-16.441999435424805 C-58.70199966430664,-15.734000205993652 -59.31100082397461,-14.960000038146973 -59.847999572753906,-14.116999626159668 C-64.83000183105469,-6.300000190734863 -61.92900085449219,4.995999813079834 -55.46699905395508,11.482000350952148 C-48.78499984741211,18.187999725341797 -40.058998107910156,19.945999145507812 -31.534000396728516,22.361000061035156 C-22.582000732421875,24.89699935913086 -13.208000183105469,25.916000366210938 -3.937000036239624,25.85099983215332 C9.875,25.7549991607666 23.67300033569336,23.05900001525879 36.59400177001953,17.878000259399414 C45.92399978637695,14.13700008392334 61.0890007019043,8.458000183105469 63.4640007019043,-3.3510000705718994 C64.83100128173828,-10.149999618530273 62.025001525878906,-17.68400001525879 56.64500045776367,-21.6560001373291 C51.21900177001953,-25.660999298095703 43.979000091552734,-25.91699981689453 37.56399917602539,-24.222000122070312 C31.149999618530273,-22.525999069213867 25.285999298095703,-19.100000381469727 19.29199981689453,-16.14299964904785 C11.727999687194824,-12.40999984741211 4.831999778747559,-10.779999732971191 -3.4200000762939453,-11.140000343322754 C-11.107999801635742,-11.47599983215332 -17.841999053955078,-15.954999923706055 -25.016000747680664,-18.367000579833984 C-31.013999938964844,-20.384000778198242 -37.13999938964844,-22.42099952697754 -43.430999755859375,-22.32900047302246 C-48.763999938964844,-22.250999450683594 -54.319000244140625,-20.378000259399414 -58.034000396728516,-16.441999435424805z"></path><path stroke-linecap="round" stroke-linejoin="round" fill-opacity="0" stroke="rgb(41,47,51)" stroke-opacity="1" stroke-width="4" d=" M-58.034000396728516,-16.441999435424805 C-58.70199966430664,-15.734000205993652 -59.31100082397461,-14.960000038146973 -59.847999572753906,-14.116999626159668 C-64.83000183105469,-6.300000190734863 -61.92900085449219,4.995999813079834 -55.46699905395508,11.482000350952148 C-48.78499984741211,18.187999725341797 -40.058998107910156,19.945999145507812 -31.534000396728516,22.361000061035156 C-22.582000732421875,24.89699935913086 -13.208000183105469,25.916000366210938 -3.937000036239624,25.85099983215332 C9.875,25.7549991607666 23.67300033569336,23.05900001525879 36.59400177001953,17.878000259399414 C45.92399978637695,14.13700008392334 61.0890007019043,8.458000183105469 63.4640007019043,-3.3510000705718994 C64.83100128173828,-10.149999618530273 62.025001525878906,-17.68400001525879 56.64500045776367,-21.6560001373291 C51.21900177001953,-25.660999298095703 43.979000091552734,-25.91699981689453 37.56399917602539,-24.222000122070312 C31.149999618530273,-22.525999069213867 25.285999298095703,-19.100000381469727 19.29199981689453,-16.14299964904785 C11.727999687194824,-12.40999984741211 4.831999778747559,-10.779999732971191 -3.4200000762939453,-11.140000343322754 C-11.107999801635742,-11.47599983215332 -17.841999053955078,-15.954999923706055 -25.016000747680664,-18.367000579833984 C-31.013999938964844,-20.384000778198242 -37.13999938964844,-22.42099952697754 -43.430999755859375,-22.32900047302246 C-48.763999938964844,-22.250999450683594 -54.319000244140625,-20.378000259399414 -58.034000396728516,-16.441999435424805z"></path></g><g opacity="1" transform="matrix(1,0,0,1,100.76200103759766,109.81300354003906)"><path fill="rgb(229,226,214)" fill-opacity="1" d=" M1.4570000171661377,-19.969999313354492 C0.8510000109672546,-12.303000450134277 -0.8510000109672546,12.303999900817871 -1.4570000171661377,19.969999313354492"></path><path stroke-linecap="round" stroke-linejoin="round" fill-opacity="0" stroke="rgb(41,47,51)" stroke-opacity="1" stroke-width="4" d=" M1.4570000171661377,-19.969999313354492 C0.8510000109672546,-12.303000450134277 -0.8510000109672546,12.303999900817871 -1.4570000171661377,19.969999313354492"></path></g><g opacity="1" transform="matrix(1,0,0,1,131.63499450683594,114.08899688720703)"><path fill="rgb(229,226,214)" fill-opacity="1" d=" M-0.07599999755620956,-17.80299949645996 C-0.28200000524520874,-6.34499979019165 0.28200000524520874,6.130000114440918 -0.07599999755620956,17.80299949645996"></path><path stroke-linecap="round" stroke-linejoin="round" fill-opacity="0" stroke="rgb(41,47,51)" stroke-opacity="1" stroke-width="4" d=" M-0.07599999755620956,-17.80299949645996 C-0.28200000524520874,-6.34499979019165 0.28200000524520874,6.130000114440918 -0.07599999755620956,17.80299949645996"></path></g><g opacity="1" transform="matrix(1,0,0,1,163.22500610351562,106.05599975585938)"><path fill="rgb(229,226,214)" fill-opacity="1" d=" M-4.209000110626221,-19.243999481201172 C-2.4260001182556152,-8.737000465393066 1.9170000553131104,9.015999794006348 4.209000110626221,19.243999481201172"></path><path stroke-linecap="round" stroke-linejoin="round" fill-opacity="0" stroke="rgb(41,47,51)" stroke-opacity="1" stroke-width="4" d=" M-4.209000110626221,-19.243999481201172 C-2.4260001182556152,-8.737000465393066 1.9170000553131104,9.015999794006348 4.209000110626221,19.243999481201172"></path></g></g><g transform="matrix(0.8100000023841858,0,0,-1,153.71499633789062,270.5)" opacity="1" style="display: block;"><g opacity="1" transform="matrix(1,0,0,1,148.302001953125,62.18600082397461)"><path fill="rgb(41,47,51)" fill-opacity="1" d=" M-111.52300262451172,-48.314998626708984 C-107.91600036621094,-52.020999908447266 -102.44999694824219,-53.77199935913086 -92.85900115966797,-53.77199935913086 C-92.85900115966797,-53.77199935913086 -65.27899932861328,-53.77199935913086 -65.27899932861328,-53.77199935913086 C-65.27899932861328,-53.77199935913086 55.816001892089844,-53.77199935913086 55.816001892089844,-53.77199935913086 C55.816001892089844,-53.77199935913086 103.38800048828125,-53.77199935913086 103.38800048828125,-53.77199935913086 C105.16200256347656,-53.77199935913086 109.8239974975586,-54.68600082397461 111.34700012207031,-53.77899932861328 C117.5739974975586,-50.069000244140625 121.27300262451172,-23.485000610351562 123.58399963378906,-16.18000030517578 C128.32400512695312,-1.1979999542236328 133.06300354003906,13.784000396728516 137.80299377441406,28.764999389648438 C139.29800415039062,33.4900016784668 140.802001953125,38.55500030517578 139.4250030517578,43.314998626708984 C136.13600158691406,54.68600082397461 121.74299621582031,51.762001037597656 112.90299987792969,51.46500015258789 C96.97799682617188,50.930999755859375 81.05799865722656,50.77899932861328 65.125,50.77899932861328 C65.125,50.77899932861328 -53.45500183105469,50.77899932861328 -53.45500183105469,50.77899932861328 C-77.11199951171875,50.77899932861328 -100.51300048828125,49.744998931884766 -124.08000183105469,49.98699951171875 C-128.01800537109375,50.027000427246094 -132.42100524902344,49.88600158691406 -135.1840057373047,47.08000183105469 C-140.802001953125,41.37699890136719 -134.447998046875,25.450000762939453 -132.74200439453125,18.454999923706055 C-129.0780029296875,3.437000036239624 -124.4749984741211,-11.416999816894531 -120.35199737548828,-26.316999435424805 C-117.48799896240234,-36.67100143432617 -115.83200073242188,-43.88800048828125 -111.52300262451172,-48.314998626708984z"></path><path stroke-linecap="butt" stroke-linejoin="miter" fill-opacity="0" stroke-miterlimit="10" stroke="rgb(41,47,51)" stroke-opacity="1" stroke-width="3" d=" M-111.52300262451172,-48.314998626708984 C-107.91600036621094,-52.020999908447266 -102.44999694824219,-53.77199935913086 -92.85900115966797,-53.77199935913086 C-92.85900115966797,-53.77199935913086 -65.27899932861328,-53.77199935913086 -65.27899932861328,-53.77199935913086 C-65.27899932861328,-53.77199935913086 55.816001892089844,-53.77199935913086 55.816001892089844,-53.77199935913086 C55.816001892089844,-53.77199935913086 103.38800048828125,-53.77199935913086 103.38800048828125,-53.77199935913086 C105.16200256347656,-53.77199935913086 109.8239974975586,-54.68600082397461 111.34700012207031,-53.77899932861328 C117.5739974975586,-50.069000244140625 121.27300262451172,-23.485000610351562 123.58399963378906,-16.18000030517578 C128.32400512695312,-1.1979999542236328 133.06300354003906,13.784000396728516 137.80299377441406,28.764999389648438 C139.29800415039062,33.4900016784668 140.802001953125,38.55500030517578 139.4250030517578,43.314998626708984 C136.13600158691406,54.68600082397461 121.74299621582031,51.762001037597656 112.90299987792969,51.46500015258789 C96.97799682617188,50.930999755859375 81.05799865722656,50.77899932861328 65.125,50.77899932861328 C65.125,50.77899932861328 -53.45500183105469,50.77899932861328 -53.45500183105469,50.77899932861328 C-77.11199951171875,50.77899932861328 -100.51300048828125,49.744998931884766 -124.08000183105469,49.98699951171875 C-128.01800537109375,50.027000427246094 -132.42100524902344,49.88600158691406 -135.1840057373047,47.08000183105469 C-140.802001953125,41.37699890136719 -134.447998046875,25.450000762939453 -132.74200439453125,18.454999923706055 C-129.0780029296875,3.437000036239624 -124.4749984741211,-11.416999816894531 -120.35199737548828,-26.316999435424805 C-117.48799896240234,-36.67100143432617 -115.83200073242188,-43.88800048828125 -111.52300262451172,-48.314998626708984z"></path></g></g><g transform="matrix(-0.8100000023841858,0,0,1,396.2850036621094,107.5)" opacity="1" style="display: block;"><g opacity="1" transform="matrix(1,0,0,1,148.302001953125,62.18600082397461)"><path fill="rgb(41,47,51)" fill-opacity="1" d=" M-111.52300262451172,-48.314998626708984 C-107.91600036621094,-52.020999908447266 -102.44999694824219,-53.77199935913086 -92.85900115966797,-53.77199935913086 C-92.85900115966797,-53.77199935913086 -65.27899932861328,-53.77199935913086 -65.27899932861328,-53.77199935913086 C-65.27899932861328,-53.77199935913086 55.816001892089844,-53.77199935913086 55.816001892089844,-53.77199935913086 C55.816001892089844,-53.77199935913086 103.38800048828125,-53.77199935913086 103.38800048828125,-53.77199935913086 C105.16200256347656,-53.77199935913086 109.8239974975586,-54.68600082397461 111.34700012207031,-53.77899932861328 C117.5739974975586,-50.069000244140625 121.27300262451172,-23.485000610351562 123.58399963378906,-16.18000030517578 C128.32400512695312,-1.1979999542236328 133.06300354003906,13.784000396728516 137.80299377441406,28.764999389648438 C139.29800415039062,33.4900016784668 140.802001953125,38.55500030517578 139.4250030517578,43.314998626708984 C136.13600158691406,54.68600082397461 121.74299621582031,51.762001037597656 112.90299987792969,51.46500015258789 C96.97799682617188,50.930999755859375 81.05799865722656,50.77899932861328 65.125,50.77899932861328 C65.125,50.77899932861328 -53.45500183105469,50.77899932861328 -53.45500183105469,50.77899932861328 C-77.11199951171875,50.77899932861328 -100.51300048828125,49.744998931884766 -124.08000183105469,49.98699951171875 C-128.01800537109375,50.027000427246094 -132.42100524902344,49.88600158691406 -135.1840057373047,47.08000183105469 C-140.802001953125,41.37699890136719 -134.447998046875,25.450000762939453 -132.74200439453125,18.454999923706055 C-129.0780029296875,3.437000036239624 -124.4749984741211,-11.416999816894531 -120.35199737548828,-26.316999435424805 C-117.48799896240234,-36.67100143432617 -115.83200073242188,-43.88800048828125 -111.52300262451172,-48.314998626708984z"></path><path stroke-linecap="butt" stroke-linejoin="miter" fill-opacity="0" stroke-miterlimit="10" stroke="rgb(41,47,51)" stroke-opacity="1" stroke-width="3" d=" M-111.52300262451172,-48.314998626708984 C-107.91600036621094,-52.020999908447266 -102.44999694824219,-53.77199935913086 -92.85900115966797,-53.77199935913086 C-92.85900115966797,-53.77199935913086 -65.27899932861328,-53.77199935913086 -65.27899932861328,-53.77199935913086 C-65.27899932861328,-53.77199935913086 55.816001892089844,-53.77199935913086 55.816001892089844,-53.77199935913086 C55.816001892089844,-53.77199935913086 103.38800048828125,-53.77199935913086 103.38800048828125,-53.77199935913086 C105.16200256347656,-53.77199935913086 109.8239974975586,-54.68600082397461 111.34700012207031,-53.77899932861328 C117.5739974975586,-50.069000244140625 121.27300262451172,-23.485000610351562 123.58399963378906,-16.18000030517578 C128.32400512695312,-1.1979999542236328 133.06300354003906,13.784000396728516 137.80299377441406,28.764999389648438 C139.29800415039062,33.4900016784668 140.802001953125,38.55500030517578 139.4250030517578,43.314998626708984 C136.13600158691406,54.68600082397461 121.74299621582031,51.762001037597656 112.90299987792969,51.46500015258789 C96.97799682617188,50.930999755859375 81.05799865722656,50.77899932861328 65.125,50.77899932861328 C65.125,50.77899932861328 -53.45500183105469,50.77899932861328 -53.45500183105469,50.77899932861328 C-77.11199951171875,50.77899932861328 -100.51300048828125,49.744998931884766 -124.08000183105469,49.98699951171875 C-128.01800537109375,50.027000427246094 -132.42100524902344,49.88600158691406 -135.1840057373047,47.08000183105469 C-140.802001953125,41.37699890136719 -134.447998046875,25.450000762939453 -132.74200439453125,18.454999923706055 C-129.0780029296875,3.437000036239624 -124.4749984741211,-11.416999816894531 -120.35199737548828,-26.316999435424805 C-117.48799896240234,-36.67100143432617 -115.83200073242188,-43.88800048828125 -111.52300262451172,-48.314998626708984z"></path></g></g><g transform="matrix(-1,0,0,1,282,96.5)" opacity="1" style="display: block;"><g opacity="1" transform="matrix(1,0,0,1,68.63600158691406,92.08000183105469)"><path fill="rgb(41,47,51)" fill-opacity="1" d=" M58.86800003051758,66.46700286865234 C57.94499969482422,67.23100280761719 56.41699981689453,67.77799987792969 53.944000244140625,68.05799865722656 C36.6609992980957,70.01000213623047 19.410999298095703,68.98200225830078 2.36299991607666,72.54199981689453 C-15.640999794006348,76.302001953125 -33.64500045776367,80.05899810791016 -51.650001525878906,83.81700134277344 C-53.7859992980957,84.26300048828125 -56.36000061035156,84.58000183105469 -57.83300018310547,82.96900177001953 C-58.89400100708008,81.80799865722656 -58.944000244140625,80.072998046875 -58.935001373291016,78.5 C-58.8120002746582,57.67300033569336 -57.35499954223633,37.23899841308594 -57.35499954223633,16.454999923706055 C-57.35499954223633,2.553999900817871 -56.409000396728516,-11.340999603271484 -56.499000549316406,-25.243000030517578 C-56.525001525878906,-29.25200080871582 -61.137001037597656,-84.58000183105469 -56.55699920654297,-84.58000183105469 C-35.49399948120117,-84.58000183105469 -13.845999717712402,-80.96700286865234 6.611000061035156,-76.20899963378906 C11.654000282287598,-75.03500366210938 60.25400161743164,-67.74299621582031 60.28499984741211,-62.03900146484375 C60.404998779296875,-40.85200119018555 59.744998931884766,-19.715999603271484 59.744998931884766,1.4559999704360962 C59.744998931884766,1.4559999704360962 59.744998931884766,39.250999450683594 59.744998931884766,39.250999450683594 C59.744998931884766,39.250999450683594 59.744998931884766,57.6879997253418 59.744998931884766,57.6879997253418 C59.744998931884766,61.404998779296875 61.13600158691406,64.58899688720703 58.86800003051758,66.46700286865234z"></path><path stroke-linecap="butt" stroke-linejoin="miter" fill-opacity="0" stroke-miterlimit="10" stroke="rgb(41,47,51)" stroke-opacity="1" stroke-width="3" d=" M58.86800003051758,66.46700286865234 C57.94499969482422,67.23100280761719 56.41699981689453,67.77799987792969 53.944000244140625,68.05799865722656 C36.6609992980957,70.01000213623047 19.410999298095703,68.98200225830078 2.36299991607666,72.54199981689453 C-15.640999794006348,76.302001953125 -33.64500045776367,80.05899810791016 -51.650001525878906,83.81700134277344 C-53.7859992980957,84.26300048828125 -56.36000061035156,84.58000183105469 -57.83300018310547,82.96900177001953 C-58.89400100708008,81.80799865722656 -58.944000244140625,80.072998046875 -58.935001373291016,78.5 C-58.8120002746582,57.67300033569336 -57.35499954223633,37.23899841308594 -57.35499954223633,16.454999923706055 C-57.35499954223633,2.553999900817871 -56.409000396728516,-11.340999603271484 -56.499000549316406,-25.243000030517578 C-56.525001525878906,-29.25200080871582 -61.137001037597656,-84.58000183105469 -56.55699920654297,-84.58000183105469 C-35.49399948120117,-84.58000183105469 -13.845999717712402,-80.96700286865234 6.611000061035156,-76.20899963378906 C11.654000282287598,-75.03500366210938 60.25400161743164,-67.74299621582031 60.28499984741211,-62.03900146484375 C60.404998779296875,-40.85200119018555 59.744998931884766,-19.715999603271484 59.744998931884766,1.4559999704360962 C59.744998931884766,1.4559999704360962 59.744998931884766,39.250999450683594 59.744998931884766,39.250999450683594 C59.744998931884766,39.250999450683594 59.744998931884766,57.6879997253418 59.744998931884766,57.6879997253418 C59.744998931884766,61.404998779296875 61.13600158691406,64.58899688720703 58.86800003051758,66.46700286865234z"></path></g></g><g transform="matrix(1,0,0,1,272,96.5)" opacity="1" style="display: block;"><g opacity="1" transform="matrix(1,0,0,1,68.63600158691406,92.08000183105469)"><path fill="rgb(41,47,51)" fill-opacity="1" d=" M58.86800003051758,66.46700286865234 C57.94499969482422,67.23100280761719 56.41699981689453,67.77799987792969 53.944000244140625,68.05799865722656 C36.6609992980957,70.01000213623047 19.410999298095703,68.98200225830078 2.36299991607666,72.54199981689453 C-15.640999794006348,76.302001953125 -33.64500045776367,80.05899810791016 -51.650001525878906,83.81700134277344 C-53.7859992980957,84.26300048828125 -56.36000061035156,84.58000183105469 -57.83300018310547,82.96900177001953 C-58.89400100708008,81.80799865722656 -58.944000244140625,80.072998046875 -58.935001373291016,78.5 C-58.8120002746582,57.67300033569336 -57.35499954223633,37.23899841308594 -57.35499954223633,16.454999923706055 C-57.35499954223633,2.553999900817871 -56.409000396728516,-11.340999603271484 -56.499000549316406,-25.243000030517578 C-56.525001525878906,-29.25200080871582 -61.137001037597656,-84.58000183105469 -56.55699920654297,-84.58000183105469 C-35.49399948120117,-84.58000183105469 -13.845999717712402,-80.96700286865234 6.611000061035156,-76.20899963378906 C11.654000282287598,-75.03500366210938 60.25400161743164,-67.74299621582031 60.28499984741211,-62.03900146484375 C60.404998779296875,-40.85200119018555 59.744998931884766,-19.715999603271484 59.744998931884766,1.4559999704360962 C59.744998931884766,1.4559999704360962 59.744998931884766,39.250999450683594 59.744998931884766,39.250999450683594 C59.744998931884766,39.250999450683594 59.744998931884766,57.6879997253418 59.744998931884766,57.6879997253418 C59.744998931884766,61.404998779296875 61.13600158691406,64.58899688720703 58.86800003051758,66.46700286865234z"></path><path stroke-linecap="butt" stroke-linejoin="miter" fill-opacity="0" stroke-miterlimit="10" stroke="rgb(41,47,51)" stroke-opacity="1" stroke-width="3" d=" M58.86800003051758,66.46700286865234 C57.94499969482422,67.23100280761719 56.41699981689453,67.77799987792969 53.944000244140625,68.05799865722656 C36.6609992980957,70.01000213623047 19.410999298095703,68.98200225830078 2.36299991607666,72.54199981689453 C-15.640999794006348,76.302001953125 -33.64500045776367,80.05899810791016 -51.650001525878906,83.81700134277344 C-53.7859992980957,84.26300048828125 -56.36000061035156,84.58000183105469 -57.83300018310547,82.96900177001953 C-58.89400100708008,81.80799865722656 -58.944000244140625,80.072998046875 -58.935001373291016,78.5 C-58.8120002746582,57.67300033569336 -57.35499954223633,37.23899841308594 -57.35499954223633,16.454999923706055 C-57.35499954223633,2.553999900817871 -56.409000396728516,-11.340999603271484 -56.499000549316406,-25.243000030517578 C-56.525001525878906,-29.25200080871582 -61.137001037597656,-84.58000183105469 -56.55699920654297,-84.58000183105469 C-35.49399948120117,-84.58000183105469 -13.845999717712402,-80.96700286865234 6.611000061035156,-76.20899963378906 C11.654000282287598,-75.03500366210938 60.25400161743164,-67.74299621582031 60.28499984741211,-62.03900146484375 C60.404998779296875,-40.85200119018555 59.744998931884766,-19.715999603271484 59.744998931884766,1.4559999704360962 C59.744998931884766,1.4559999704360962 59.744998931884766,39.250999450683594 59.744998931884766,39.250999450683594 C59.744998931884766,39.250999450683594 59.744998931884766,57.6879997253418 59.744998931884766,57.6879997253418 C59.744998931884766,61.404998779296875 61.13600158691406,64.58899688720703 58.86800003051758,66.46700286865234z"></path></g></g><g transform="matrix(1,0,0,1,293,176.5)" opacity="1" style="display: block;"><g opacity="1" transform="matrix(1,0,0,1,69.92900085449219,43.11399841308594)"><path fill="rgb(221,171,69)" fill-opacity="1" d=" M-59.92900085449219,-8.906000137329102 C-52.62900161743164,-7.578999996185303 -45.641998291015625,-5.008999824523926 -38.6879997253418,-2.492000102996826 C-22.6299991607666,3.319000005722046 -5.9029998779296875,8.564000129699707 11.123000144958496,10.701000213623047 C16.996999740600586,11.437999725341797 23.7189998626709,11.576000213623047 27.945999145507812,7.429999828338623 C33.915000915527344,1.5750000476837158 29.766000747680664,-7.242000102996826 26.042999267578125,-13.029000282287598 C24.606000900268555,-15.26200008392334 22.190000534057617,-17.04800033569336 21.42300033569336,-19.628000259399414 C20.518999099731445,-22.667999267578125 20.88599967956543,-26.73900032043457 20.641000747680664,-29.915000915527344 C20.572999954223633,-30.801000595092773 20.551000595092773,-31.816999435424805 21.195999145507812,-32.426998138427734 C21.92099952697754,-33.11399841308594 23.083999633789062,-32.91999816894531 24.045000076293945,-32.645999908447266 C43.2400016784668,-27.16900062561035 59.92900085449219,-5.513000011444092 53.58700180053711,14.871999740600586 C51.8129997253418,20.576000213623047 47.691001892089844,26.996000289916992 42.301998138427734,29.934999465942383 C36.47200012207031,33.11399841308594 28.69099998474121,32.59400177001953 22.357999801635742,31.54199981689453 C8.984000205993652,29.319000244140625 -4.322000026702881,24.798999786376953 -17.233999252319336,20.715999603271484 C-24.5939998626709,18.388999938964844 -31.867000579833984,15.789999961853027 -39.03499984741211,12.925999641418457 C-45.724998474121094,10.251999855041504 -52.22999954223633,6.73199987411499 -59.130001068115234,4.892000198364258"></path><path stroke-linecap="round" stroke-linejoin="round" fill-opacity="0" stroke="rgb(41,47,51)" stroke-opacity="1" stroke-width="4" d=" M-59.92900085449219,-8.906000137329102 C-52.62900161743164,-7.578999996185303 -45.641998291015625,-5.008999824523926 -38.6879997253418,-2.492000102996826 C-22.6299991607666,3.319000005722046 -5.9029998779296875,8.564000129699707 11.123000144958496,10.701000213623047 C16.996999740600586,11.437999725341797 23.7189998626709,11.576000213623047 27.945999145507812,7.429999828338623 C33.915000915527344,1.5750000476837158 29.766000747680664,-7.242000102996826 26.042999267578125,-13.029000282287598 C24.606000900268555,-15.26200008392334 22.190000534057617,-17.04800033569336 21.42300033569336,-19.628000259399414 C20.518999099731445,-22.667999267578125 20.88599967956543,-26.73900032043457 20.641000747680664,-29.915000915527344 C20.572999954223633,-30.801000595092773 20.551000595092773,-31.816999435424805 21.195999145507812,-32.426998138427734 C21.92099952697754,-33.11399841308594 23.083999633789062,-32.91999816894531 24.045000076293945,-32.645999908447266 C43.2400016784668,-27.16900062561035 59.92900085449219,-5.513000011444092 53.58700180053711,14.871999740600586 C51.8129997253418,20.576000213623047 47.691001892089844,26.996000289916992 42.301998138427734,29.934999465942383 C36.47200012207031,33.11399841308594 28.69099998474121,32.59400177001953 22.357999801635742,31.54199981689453 C8.984000205993652,29.319000244140625 -4.322000026702881,24.798999786376953 -17.233999252319336,20.715999603271484 C-24.5939998626709,18.388999938964844 -31.867000579833984,15.789999961853027 -39.03499984741211,12.925999641418457 C-45.724998474121094,10.251999855041504 -52.22999954223633,6.73199987411499 -59.130001068115234,4.892000198364258"></path></g></g><g transform="matrix(-1,0,0,1,258,171.5)" opacity="1" style="display: block;"><g opacity="1" transform="matrix(1,0,0,1,69.92900085449219,43.11399841308594)"><path fill="rgb(221,171,69)" fill-opacity="1" d=" M-59.92900085449219,-8.906000137329102 C-52.62900161743164,-7.578999996185303 -45.641998291015625,-5.008999824523926 -38.6879997253418,-2.492000102996826 C-22.6299991607666,3.319000005722046 -5.9029998779296875,8.564000129699707 11.123000144958496,10.701000213623047 C16.996999740600586,11.437999725341797 23.7189998626709,11.576000213623047 27.945999145507812,7.429999828338623 C33.915000915527344,1.5750000476837158 29.766000747680664,-7.242000102996826 26.042999267578125,-13.029000282287598 C24.606000900268555,-15.26200008392334 22.190000534057617,-17.04800033569336 21.42300033569336,-19.628000259399414 C20.518999099731445,-22.667999267578125 20.88599967956543,-26.73900032043457 20.641000747680664,-29.915000915527344 C20.572999954223633,-30.801000595092773 20.551000595092773,-31.816999435424805 21.195999145507812,-32.426998138427734 C21.92099952697754,-33.11399841308594 23.083999633789062,-32.91999816894531 24.045000076293945,-32.645999908447266 C43.2400016784668,-27.16900062561035 59.92900085449219,-5.513000011444092 53.58700180053711,14.871999740600586 C51.8129997253418,20.576000213623047 47.691001892089844,26.996000289916992 42.301998138427734,29.934999465942383 C36.47200012207031,33.11399841308594 28.69099998474121,32.59400177001953 22.357999801635742,31.54199981689453 C8.984000205993652,29.319000244140625 -4.322000026702881,24.798999786376953 -17.233999252319336,20.715999603271484 C-24.5939998626709,18.388999938964844 -31.867000579833984,15.789999961853027 -39.03499984741211,12.925999641418457 C-45.724998474121094,10.251999855041504 -52.22999954223633,6.73199987411499 -59.130001068115234,4.892000198364258"></path><path stroke-linecap="round" stroke-linejoin="round" fill-opacity="0" stroke="rgb(41,47,51)" stroke-opacity="1" stroke-width="4" d=" M-59.92900085449219,-8.906000137329102 C-52.62900161743164,-7.578999996185303 -45.641998291015625,-5.008999824523926 -38.6879997253418,-2.492000102996826 C-22.6299991607666,3.319000005722046 -5.9029998779296875,8.564000129699707 11.123000144958496,10.701000213623047 C16.996999740600586,11.437999725341797 23.7189998626709,11.576000213623047 27.945999145507812,7.429999828338623 C33.915000915527344,1.5750000476837158 29.766000747680664,-7.242000102996826 26.042999267578125,-13.029000282287598 C24.606000900268555,-15.26200008392334 22.190000534057617,-17.04800033569336 21.42300033569336,-19.628000259399414 C20.518999099731445,-22.667999267578125 20.88599967956543,-26.73900032043457 20.641000747680664,-29.915000915527344 C20.572999954223633,-30.801000595092773 20.551000595092773,-31.816999435424805 21.195999145507812,-32.426998138427734 C21.92099952697754,-33.11399841308594 23.083999633789062,-32.91999816894531 24.045000076293945,-32.645999908447266 C43.2400016784668,-27.16900062561035 59.92900085449219,-5.513000011444092 53.58700180053711,14.871999740600586 C51.8129997253418,20.576000213623047 47.691001892089844,26.996000289916992 42.301998138427734,29.934999465942383 C36.47200012207031,33.11399841308594 28.69099998474121,32.59400177001953 22.357999801635742,31.54199981689453 C8.984000205993652,29.319000244140625 -4.322000026702881,24.798999786376953 -17.233999252319336,20.715999603271484 C-24.5939998626709,18.388999938964844 -31.867000579833984,15.789999961853027 -39.03499984741211,12.925999641418457 C-45.724998474121094,10.251999855041504 -52.22999954223633,6.73199987411499 -59.130001068115234,4.892000198364258"></path></g></g><g transform="matrix(1,0,0,1,251,151)" opacity="1" style="display: block;"><g opacity="1" transform="matrix(1,0,0,1,41.356998443603516,24.416000366210938)"><path fill="rgb(229,226,214)" fill-opacity="1" d=" M8.871999740600586,1.4980000257492065 C9.753999710083008,-2.128000020980835 9.376999855041504,-8.85200023651123 4.196000099182129,-12.61299991607666 C2.2200000286102295,-14.04699993133545 -1.9320000410079956,-14.416000366210938 -3.812999963760376,-13.75100040435791 C-6.328000068664551,-12.861000061035156 -9.317999839782715,-10.211000442504883 -9.593999862670898,-7.804999828338623 C-9.753999710083008,-6.413000106811523 -8.857999801635742,-2.5409998893737793 -8.288000106811523,-1.2389999628067017 C-7.684999942779541,0.1379999965429306 1.9140000343322754,13.583000183105469 3.260999917984009,13.866999626159668 C5.86899995803833,14.414999961853027 7.386000156402588,7.60699987411499 8.871999740600586,1.4980000257492065z"></path><path stroke-linecap="butt" stroke-linejoin="miter" fill-opacity="0" stroke-miterlimit="10" stroke="rgb(41,47,51)" stroke-opacity="1" stroke-width="4" d=" M8.871999740600586,1.4980000257492065 C9.753999710083008,-2.128000020980835 9.376999855041504,-8.85200023651123 4.196000099182129,-12.61299991607666 C2.2200000286102295,-14.04699993133545 -1.9320000410079956,-14.416000366210938 -3.812999963760376,-13.75100040435791 C-6.328000068664551,-12.861000061035156 -9.317999839782715,-10.211000442504883 -9.593999862670898,-7.804999828338623 C-9.753999710083008,-6.413000106811523 -8.857999801635742,-2.5409998893737793 -8.288000106811523,-1.2389999628067017 C-7.684999942779541,0.1379999965429306 1.9140000343322754,13.583000183105469 3.260999917984009,13.866999626159668 C5.86899995803833,14.414999961853027 7.386000156402588,7.60699987411499 8.871999740600586,1.4980000257492065z"></path></g><g opacity="1" transform="matrix(1,0,0,1,36.5359992980957,55.290000915527344)"><path fill="rgb(229,226,214)" fill-opacity="1" d=" M6.02400016784668,29.009000778198242 C-0.3700000047683716,30.378000259399414 -8.857999801635742,28.93400001525879 -14.706000328063965,25.56999969482422 C-20.16900062561035,22.42799949645996 -23.13800048828125,15.065999984741211 -21.83099937438965,9.380000114440918 C-21.70599937438965,8.838000297546387 -26.336000442504883,4.1519999504089355 -26.459999084472656,-1.312000036239624 C-26.535999298095703,-4.622000217437744 -26.073999404907227,-8.413000106811523 -23.851999282836914,-11.189000129699707 C-23.770999908447266,-11.291000366210938 -25.118999481201172,-13.87399959564209 -25.215999603271484,-14.232000350952148 C-25.55900001525879,-15.50100040435791 -25.611000061035156,-16.76799964904785 -25.506999969482422,-18.05900001525879 C-25.319000244140625,-20.391000747680664 -24.84600067138672,-22.47800064086914 -23.341999053955078,-24.500999450683594 C-18.979999542236328,-30.365999221801758 -6.296000003814697,-29.636999130249023 5.949999809265137,-30.05699920654297 C15.329999923706055,-30.378000259399414 26.535999298095703,-18.194000244140625 25.28700065612793,-4.940999984741211 C23.801000595092773,10.812999725341797 23.118000030517578,25.347999572753906 6.02400016784668,29.009000778198242z"></path><path stroke-linecap="round" stroke-linejoin="round" fill-opacity="0" stroke="rgb(41,47,51)" stroke-opacity="1" stroke-width="4" d=" M6.02400016784668,29.009000778198242 C-0.3700000047683716,30.378000259399414 -8.857999801635742,28.93400001525879 -14.706000328063965,25.56999969482422 C-20.16900062561035,22.42799949645996 -23.13800048828125,15.065999984741211 -21.83099937438965,9.380000114440918 C-21.70599937438965,8.838000297546387 -26.336000442504883,4.1519999504089355 -26.459999084472656,-1.312000036239624 C-26.535999298095703,-4.622000217437744 -26.073999404907227,-8.413000106811523 -23.851999282836914,-11.189000129699707 C-23.770999908447266,-11.291000366210938 -25.118999481201172,-13.87399959564209 -25.215999603271484,-14.232000350952148 C-25.55900001525879,-15.50100040435791 -25.611000061035156,-16.76799964904785 -25.506999969482422,-18.05900001525879 C-25.319000244140625,-20.391000747680664 -24.84600067138672,-22.47800064086914 -23.341999053955078,-24.500999450683594 C-18.979999542236328,-30.365999221801758 -6.296000003814697,-29.636999130249023 5.949999809265137,-30.05699920654297 C15.329999923706055,-30.378000259399414 26.535999298095703,-18.194000244140625 25.28700065612793,-4.940999984741211 C23.801000595092773,10.812999725341797 23.118000030517578,25.347999572753906 6.02400016784668,29.009000778198242z"></path></g><g opacity="1" transform="matrix(1,0,0,1,26.541000366210938,65.25399780273438)"><path fill="rgb(229,226,214)" fill-opacity="1" d=" M-12.496999740600586,-1.906999945640564 C-7.485000133514404,1.25 6.459000110626221,1.906999945640564 12.496999740600586,0.609000027179718"></path><path stroke-linecap="round" stroke-linejoin="round" fill-opacity="0" stroke="rgb(41,47,51)" stroke-opacity="1" stroke-width="4" d=" M-12.496999740600586,-1.906999945640564 C-7.485000133514404,1.25 6.459000110626221,1.906999945640564 12.496999740600586,0.609000027179718"></path></g><g opacity="1" transform="matrix(1,0,0,1,27.63800048828125,46.74300003051758)"><path fill="rgb(229,226,214)" fill-opacity="1" d=" M-14.300000190734863,-2.436000108718872 C-8.843999862670898,2.436000108718872 6.836999893188477,1.2450000047683716 14.300000190734863,0.3140000104904175"></path><path stroke-linecap="round" stroke-linejoin="round" fill-opacity="0" stroke="rgb(41,47,51)" stroke-opacity="1" stroke-width="4" d=" M-14.300000190734863,-2.436000108718872 C-8.843999862670898,2.436000108718872 6.836999893188477,1.2450000047683716 14.300000190734863,0.3140000104904175"></path></g></g><g transform="matrix(-0.838670551776886,0,0,1,295.03082275390625,151)" opacity="1" style="display: block;"><g opacity="1" transform="matrix(1,0,0,1,41.356998443603516,24.416000366210938)"><path fill="rgb(229,226,214)" fill-opacity="1" d=" M8.871999740600586,1.4980000257492065 C9.753999710083008,-2.128000020980835 9.376999855041504,-8.85200023651123 4.196000099182129,-12.61299991607666 C2.2200000286102295,-14.04699993133545 -1.9320000410079956,-14.416000366210938 -3.812999963760376,-13.75100040435791 C-6.328000068664551,-12.861000061035156 -9.317999839782715,-10.211000442504883 -9.593999862670898,-7.804999828338623 C-9.753999710083008,-6.413000106811523 -8.857999801635742,-2.5409998893737793 -8.288000106811523,-1.2389999628067017 C-7.684999942779541,0.1379999965429306 1.9140000343322754,13.583000183105469 3.260999917984009,13.866999626159668 C5.86899995803833,14.414999961853027 7.386000156402588,7.60699987411499 8.871999740600586,1.4980000257492065z"></path><path stroke-linecap="butt" stroke-linejoin="miter" fill-opacity="0" stroke-miterlimit="10" stroke="rgb(41,47,51)" stroke-opacity="1" stroke-width="4" d=" M8.871999740600586,1.4980000257492065 C9.753999710083008,-2.128000020980835 9.376999855041504,-8.85200023651123 4.196000099182129,-12.61299991607666 C2.2200000286102295,-14.04699993133545 -1.9320000410079956,-14.416000366210938 -3.812999963760376,-13.75100040435791 C-6.328000068664551,-12.861000061035156 -9.317999839782715,-10.211000442504883 -9.593999862670898,-7.804999828338623 C-9.753999710083008,-6.413000106811523 -8.857999801635742,-2.5409998893737793 -8.288000106811523,-1.2389999628067017 C-7.684999942779541,0.1379999965429306 1.9140000343322754,13.583000183105469 3.260999917984009,13.866999626159668 C5.86899995803833,14.414999961853027 7.386000156402588,7.60699987411499 8.871999740600586,1.4980000257492065z"></path></g><g opacity="1" transform="matrix(1,0,0,1,36.5359992980957,55.290000915527344)"><path fill="rgb(229,226,214)" fill-opacity="1" d=" M6.02400016784668,29.009000778198242 C-0.3700000047683716,30.378000259399414 -8.857999801635742,28.93400001525879 -14.706000328063965,25.56999969482422 C-20.16900062561035,22.42799949645996 -23.13800048828125,15.065999984741211 -21.83099937438965,9.380000114440918 C-21.70599937438965,8.838000297546387 -26.336000442504883,4.1519999504089355 -26.459999084472656,-1.312000036239624 C-26.535999298095703,-4.622000217437744 -26.073999404907227,-8.413000106811523 -23.851999282836914,-11.189000129699707 C-23.770999908447266,-11.291000366210938 -25.118999481201172,-13.87399959564209 -25.215999603271484,-14.232000350952148 C-25.55900001525879,-15.50100040435791 -25.611000061035156,-16.76799964904785 -25.506999969482422,-18.05900001525879 C-25.319000244140625,-20.391000747680664 -24.84600067138672,-22.47800064086914 -23.341999053955078,-24.500999450683594 C-18.979999542236328,-30.365999221801758 -6.296000003814697,-29.636999130249023 5.949999809265137,-30.05699920654297 C15.329999923706055,-30.378000259399414 26.535999298095703,-18.194000244140625 25.28700065612793,-4.940999984741211 C23.801000595092773,10.812999725341797 23.118000030517578,25.347999572753906 6.02400016784668,29.009000778198242z"></path><path stroke-linecap="round" stroke-linejoin="round" fill-opacity="0" stroke="rgb(41,47,51)" stroke-opacity="1" stroke-width="4" d=" M6.02400016784668,29.009000778198242 C-0.3700000047683716,30.378000259399414 -8.857999801635742,28.93400001525879 -14.706000328063965,25.56999969482422 C-20.16900062561035,22.42799949645996 -23.13800048828125,15.065999984741211 -21.83099937438965,9.380000114440918 C-21.70599937438965,8.838000297546387 -26.336000442504883,4.1519999504089355 -26.459999084472656,-1.312000036239624 C-26.535999298095703,-4.622000217437744 -26.073999404907227,-8.413000106811523 -23.851999282836914,-11.189000129699707 C-23.770999908447266,-11.291000366210938 -25.118999481201172,-13.87399959564209 -25.215999603271484,-14.232000350952148 C-25.55900001525879,-15.50100040435791 -25.611000061035156,-16.76799964904785 -25.506999969482422,-18.05900001525879 C-25.319000244140625,-20.391000747680664 -24.84600067138672,-22.47800064086914 -23.341999053955078,-24.500999450683594 C-18.979999542236328,-30.365999221801758 -6.296000003814697,-29.636999130249023 5.949999809265137,-30.05699920654297 C15.329999923706055,-30.378000259399414 26.535999298095703,-18.194000244140625 25.28700065612793,-4.940999984741211 C23.801000595092773,10.812999725341797 23.118000030517578,25.347999572753906 6.02400016784668,29.009000778198242z"></path></g><g opacity="1" transform="matrix(1,0,0,1,26.541000366210938,65.25399780273438)"><path fill="rgb(229,226,214)" fill-opacity="1" d=" M-12.496999740600586,-1.906999945640564 C-7.485000133514404,1.25 6.459000110626221,1.906999945640564 12.496999740600586,0.609000027179718"></path><path stroke-linecap="round" stroke-linejoin="round" fill-opacity="0" stroke="rgb(41,47,51)" stroke-opacity="1" stroke-width="4" d=" M-12.496999740600586,-1.906999945640564 C-7.485000133514404,1.25 6.459000110626221,1.906999945640564 12.496999740600586,0.609000027179718"></path></g><g opacity="1" transform="matrix(1,0,0,1,27.63800048828125,46.74300003051758)"><path fill="rgb(229,226,214)" fill-opacity="1" d=" M-14.300000190734863,-2.436000108718872 C-8.843999862670898,2.436000108718872 6.836999893188477,1.2450000047683716 14.300000190734863,0.3140000104904175"></path><path stroke-linecap="round" stroke-linejoin="round" fill-opacity="0" stroke="rgb(41,47,51)" stroke-opacity="1" stroke-width="4" d=" M-14.300000190734863,-2.436000108718872 C-8.843999862670898,2.436000108718872 6.836999893188477,1.2450000047683716 14.300000190734863,0.3140000104904175"></path></g></g><g style="display: none;" transform="matrix(1,0,0,-1,164,355)" opacity="1"><g opacity="1" transform="matrix(1,0,0,1,164.99400329589844,57.87699890136719)"><path stroke-linecap="round" stroke-linejoin="round" fill-opacity="0" stroke="rgb(229,226,214)" stroke-opacity="1" stroke-width="4" d=" M-1.3919999599456787,12.069999694824219 C-0.46399998664855957,4.0229997634887695 0.46399998664855957,-4.0229997634887695 1.3919999599456787,-12.069999694824219"></path></g><g opacity="1" transform="matrix(1,0,0,1,114.0260009765625,46.20100021362305)"><path stroke-linecap="round" stroke-linejoin="round" fill-opacity="0" stroke="rgb(229,226,214)" stroke-opacity="1" stroke-width="4" d=" M0.4740000069141388,13.751999855041504 C0.4740000069141388,13.751999855041504 0.4740000069141388,22.92099952697754 0.4740000069141388,22.92099952697754 C0.22300000488758087,7.0879998207092285 -0.22200000286102295,-7.0879998207092285 -0.4740000069141388,-22.92099952697754"></path></g><g opacity="1" transform="matrix(1,0,0,1,59.02000045776367,54.90800094604492)"><path stroke-linecap="round" stroke-linejoin="round" fill-opacity="0" stroke="rgb(229,226,214)" stroke-opacity="1" stroke-width="4" d=" M1.9179999828338623,15.807000160217285 C0.6399999856948853,5.269000053405762 -0.6399999856948853,-5.269000053405762 -1.9179999828338623,-15.807000160217285"></path></g><g opacity="1" transform="matrix(1,0,0,1,15.913999557495117,41.24300003051758)"><path stroke-linecap="round" stroke-linejoin="round" fill-opacity="0" stroke="rgb(229,226,214)" stroke-opacity="1" stroke-width="4" d=" M5.914000034332275,31.242000579833984 C1.9709999561309814,10.413999557495117 -1.972000002861023,-10.413999557495117 -5.914000034332275,-31.242000579833984 C0.31299999356269836,-10.909000396728516 -0.31299999356269836,10.909000396728516 5.914000034332275,31.242000579833984z"></path></g><g opacity="1" transform="matrix(1,0,0,1,0,0)"><path stroke-linecap="round" stroke-linejoin="round" fill-opacity="0" stroke="rgb(229,226,214)" stroke-opacity="1" stroke-width="4" d=" M85.3270034790039,72.45700073242188 C85.3270034790039,72.45700073242188 85.3270034790039,59.119998931884766 85.3270034790039,59.119998931884766"></path></g><g opacity="1" transform="matrix(1,0,0,1,142.53599548339844,66.16999816894531)"><path stroke-linecap="round" stroke-linejoin="round" fill-opacity="0" stroke="rgb(229,226,214)" stroke-opacity="1" stroke-width="4" d=" M-0.8159999847412109,7.086999893188477 C-0.2720000147819519,2.361999988555908 0.2720000147819519,-2.361999988555908 0.8159999847412109,-7.086999893188477"></path></g><g opacity="1" transform="matrix(1,0,0,1,41.67300033569336,67.875)"><path stroke-linecap="round" stroke-linejoin="round" fill-opacity="0" stroke="rgb(229,226,214)" stroke-opacity="1" stroke-width="4" d=" M0.03099999949336052,3.75 C0.009999999776482582,1.25 -0.009999999776482582,-1.25 -0.03099999949336052,-3.75"></path></g><g opacity="1" transform="matrix(1,0,0,1,200.76600646972656,41.08000183105469)"><path stroke-linecap="round" stroke-linejoin="round" fill-opacity="0" stroke="rgb(229,226,214)" stroke-opacity="1" stroke-width="4" d=" M-8.579000473022461,30.354999542236328 C-2.859999895095825,10.118000030517578 2.8589999675750732,-10.119000434875488 8.579000473022461,-30.354999542236328"></path></g></g><g style="display: none;" transform="matrix(1,0,0,1,164,25)" opacity="1"><g opacity="1" transform="matrix(1,0,0,1,164.99400329589844,57.87699890136719)"><path stroke-linecap="round" stroke-linejoin="round" fill-opacity="0" stroke="rgb(229,226,214)" stroke-opacity="1" stroke-width="4" d=" M-1.3919999599456787,12.069999694824219 C-0.46399998664855957,4.0229997634887695 0.46399998664855957,-4.0229997634887695 1.3919999599456787,-12.069999694824219"></path></g><g opacity="1" transform="matrix(1,0,0,1,114.0260009765625,46.20100021362305)"><path stroke-linecap="round" stroke-linejoin="round" fill-opacity="0" stroke="rgb(229,226,214)" stroke-opacity="1" stroke-width="4" d=" M0.4740000069141388,13.751999855041504 C0.4740000069141388,13.751999855041504 0.4740000069141388,22.92099952697754 0.4740000069141388,22.92099952697754 C0.22300000488758087,7.0879998207092285 -0.22200000286102295,-7.0879998207092285 -0.4740000069141388,-22.92099952697754"></path></g><g opacity="1" transform="matrix(1,0,0,1,59.02000045776367,54.90800094604492)"><path stroke-linecap="round" stroke-linejoin="round" fill-opacity="0" stroke="rgb(229,226,214)" stroke-opacity="1" stroke-width="4" d=" M1.9179999828338623,15.807000160217285 C0.6399999856948853,5.269000053405762 -0.6399999856948853,-5.269000053405762 -1.9179999828338623,-15.807000160217285"></path></g><g opacity="1" transform="matrix(1,0,0,1,15.913999557495117,41.24300003051758)"><path stroke-linecap="round" stroke-linejoin="round" fill-opacity="0" stroke="rgb(229,226,214)" stroke-opacity="1" stroke-width="4" d=" M5.914000034332275,31.242000579833984 C1.9709999561309814,10.413999557495117 -1.972000002861023,-10.413999557495117 -5.914000034332275,-31.242000579833984 C0.31299999356269836,-10.909000396728516 -0.31299999356269836,10.909000396728516 5.914000034332275,31.242000579833984z"></path></g><g opacity="1" transform="matrix(1,0,0,1,0,0)"><path stroke-linecap="round" stroke-linejoin="round" fill-opacity="0" stroke="rgb(229,226,214)" stroke-opacity="1" stroke-width="4" d=" M85.3270034790039,72.45700073242188 C85.3270034790039,72.45700073242188 85.3270034790039,59.119998931884766 85.3270034790039,59.119998931884766"></path></g><g opacity="1" transform="matrix(1,0,0,1,142.53599548339844,66.16999816894531)"><path stroke-linecap="round" stroke-linejoin="round" fill-opacity="0" stroke="rgb(229,226,214)" stroke-opacity="1" stroke-width="4" d=" M-0.8159999847412109,7.086999893188477 C-0.2720000147819519,2.361999988555908 0.2720000147819519,-2.361999988555908 0.8159999847412109,-7.086999893188477"></path></g><g opacity="1" transform="matrix(1,0,0,1,41.67300033569336,67.875)"><path stroke-linecap="round" stroke-linejoin="round" fill-opacity="0" stroke="rgb(229,226,214)" stroke-opacity="1" stroke-width="4" d=" M0.03099999949336052,3.75 C0.009999999776482582,1.25 -0.009999999776482582,-1.25 -0.03099999949336052,-3.75"></path></g><g opacity="1" transform="matrix(1,0,0,1,200.76600646972656,41.08000183105469)"><path stroke-linecap="round" stroke-linejoin="round" fill-opacity="0" stroke="rgb(229,226,214)" stroke-opacity="1" stroke-width="4" d=" M-8.579000473022461,30.354999542236328 C-2.859999895095825,10.118000030517578 2.8589999675750732,-10.119000434875488 8.579000473022461,-30.354999542236328"></path></g></g><g style="display: none;" transform="matrix(-1,0,0,1,487.5,117)" opacity="1"><g opacity="1" transform="matrix(1,0,0,1,39.44200134277344,18.003999710083008)"><path stroke-linecap="round" stroke-linejoin="round" fill-opacity="0" stroke="rgb(229,226,214)" stroke-opacity="1" stroke-width="4" d=" M-28.13599967956543,-8.005000114440918 C-9.378999710083008,-2.6689999103546143 9.378999710083008,2.6689999103546143 28.13599967956543,8.005000114440918"></path></g><g opacity="1" transform="matrix(1,0,0,1,62.540000915527344,50.27799987792969)"><path stroke-linecap="round" stroke-linejoin="round" fill-opacity="0" stroke="rgb(229,226,214)" stroke-opacity="1" stroke-width="4" d=" M-5.881999969482422,-1.4789999723434448 C-1.9609999656677246,-0.49300000071525574 1.9609999656677246,0.49300000071525574 5.881999969482422,1.4789999723434448"></path></g><g opacity="1" transform="matrix(1,0,0,1,57.47200012207031,77.22699737548828)"><path stroke-linecap="round" stroke-linejoin="round" fill-opacity="0" stroke="rgb(229,226,214)" stroke-opacity="1" stroke-width="4" d=" M13.333000183105469,0.09099999815225601 C4.443999767303467,0.029999999329447746 -4.443999767303467,-0.029999999329447746 -13.333000183105469,-0.09099999815225601"></path></g><g opacity="1" transform="matrix(1,0,0,1,66.16300201416016,97.37000274658203)"><path stroke-linecap="round" stroke-linejoin="round" fill-opacity="0" stroke="rgb(229,226,214)" stroke-opacity="1" stroke-width="4" d=" M5.448999881744385,-1.1009999513626099 C1.8170000314712524,-0.367000013589859 -1.815999984741211,0.367000013589859 -5.448999881744385,1.1009999513626099"></path></g><g opacity="1" transform="matrix(1,0,0,1,41.222999572753906,123.51699829101562)"><path stroke-linecap="round" stroke-linejoin="round" fill-opacity="0" stroke="rgb(229,226,214)" stroke-opacity="1" stroke-width="4" d=" M31.222999572753906,-9.697999954223633 C10.407999992370605,-3.2330000400543213 -10.407999992370605,3.2330000400543213 -31.222999572753906,9.697999954223633"></path></g></g><g style="display: none;" transform="matrix(1,0,0,1,60.5,117)" opacity="1"><g opacity="1" transform="matrix(1,0,0,1,39.44200134277344,18.003999710083008)"><path stroke-linecap="round" stroke-linejoin="round" fill-opacity="0" stroke="rgb(229,226,214)" stroke-opacity="1" stroke-width="4" d=" M-28.13599967956543,-8.005000114440918 C-9.378999710083008,-2.6689999103546143 9.378999710083008,2.6689999103546143 28.13599967956543,8.005000114440918"></path></g><g opacity="1" transform="matrix(1,0,0,1,62.540000915527344,50.27799987792969)"><path stroke-linecap="round" stroke-linejoin="round" fill-opacity="0" stroke="rgb(229,226,214)" stroke-opacity="1" stroke-width="4" d=" M-5.881999969482422,-1.4789999723434448 C-1.9609999656677246,-0.49300000071525574 1.9609999656677246,0.49300000071525574 5.881999969482422,1.4789999723434448"></path></g><g opacity="1" transform="matrix(1,0,0,1,57.47200012207031,77.22699737548828)"><path stroke-linecap="round" stroke-linejoin="round" fill-opacity="0" stroke="rgb(229,226,214)" stroke-opacity="1" stroke-width="4" d=" M13.333000183105469,0.09099999815225601 C4.443999767303467,0.029999999329447746 -4.443999767303467,-0.029999999329447746 -13.333000183105469,-0.09099999815225601"></path></g><g opacity="1" transform="matrix(1,0,0,1,66.16300201416016,97.37000274658203)"><path stroke-linecap="round" stroke-linejoin="round" fill-opacity="0" stroke="rgb(229,226,214)" stroke-opacity="1" stroke-width="4" d=" M5.448999881744385,-1.1009999513626099 C1.8170000314712524,-0.367000013589859 -1.815999984741211,0.367000013589859 -5.448999881744385,1.1009999513626099"></path></g><g opacity="1" transform="matrix(1,0,0,1,41.222999572753906,123.51699829101562)"><path stroke-linecap="round" stroke-linejoin="round" fill-opacity="0" stroke="rgb(229,226,214)" stroke-opacity="1" stroke-width="4" d=" M31.222999572753906,-9.697999954223633 C10.407999992370605,-3.2330000400543213 -10.407999992370605,3.2330000400543213 -31.222999572753906,9.697999954223633"></path></g></g></g></svg>